<mxfile host="app.diagrams.net" modified="2020-03-21T09:36:00.322Z" agent="Mozilla/5.0 (Windows NT 10.0; Win64; x64) AppleWebKit/537.36 (KHTML, like Gecko) Chrome/80.0.3987.132 Safari/537.36" etag="SnDGAAtG8IE0jv4ajzjt" version="12.8.8" type="github">
  <diagram id="rpLuGZv8tAxbhrin9Gfg" name="Page-1">
    <mxGraphModel dx="2062" dy="1105" grid="1" gridSize="10" guides="1" tooltips="1" connect="1" arrows="1" fold="1" page="1" pageScale="1" pageWidth="827" pageHeight="1169" math="0" shadow="0">
      <root>
        <mxCell id="0" />
        <mxCell id="1" parent="0" />
        <mxCell id="tACTMoxZzmI8DRIPEZdV-2" value="Point3d" style="swimlane;fontStyle=0;childLayout=stackLayout;horizontal=1;startSize=26;fillColor=#f5f5f5;horizontalStack=0;resizeParent=1;resizeParentMax=0;resizeLast=0;collapsible=1;marginBottom=0;fontSize=16;strokeColor=#666666;fontColor=#333333;" vertex="1" parent="1">
          <mxGeometry x="120" y="180" width="200" height="142" as="geometry" />
        </mxCell>
        <mxCell id="tACTMoxZzmI8DRIPEZdV-3" value="double x" style="text;strokeColor=#6c8ebf;fillColor=#dae8fc;align=left;verticalAlign=top;spacingLeft=4;spacingRight=4;overflow=hidden;rotatable=0;points=[[0,0.5],[1,0.5]];portConstraint=eastwest;fontSize=16;" vertex="1" parent="tACTMoxZzmI8DRIPEZdV-2">
          <mxGeometry y="26" width="200" height="26" as="geometry" />
        </mxCell>
        <mxCell id="tACTMoxZzmI8DRIPEZdV-4" value="double y" style="text;strokeColor=#6c8ebf;fillColor=#dae8fc;align=left;verticalAlign=top;spacingLeft=4;spacingRight=4;overflow=hidden;rotatable=0;points=[[0,0.5],[1,0.5]];portConstraint=eastwest;fontSize=16;" vertex="1" parent="tACTMoxZzmI8DRIPEZdV-2">
          <mxGeometry y="52" width="200" height="26" as="geometry" />
        </mxCell>
        <mxCell id="tACTMoxZzmI8DRIPEZdV-5" value="double z&#xa;" style="text;strokeColor=#b85450;fillColor=#f8cecc;align=left;verticalAlign=top;spacingLeft=4;spacingRight=4;overflow=hidden;rotatable=0;points=[[0,0.5],[1,0.5]];portConstraint=eastwest;fontSize=16;" vertex="1" parent="tACTMoxZzmI8DRIPEZdV-2">
          <mxGeometry y="78" width="200" height="32" as="geometry" />
        </mxCell>
        <mxCell id="tACTMoxZzmI8DRIPEZdV-11" value="vptr" style="text;strokeColor=#b85450;fillColor=#f8cecc;align=left;verticalAlign=top;spacingLeft=4;spacingRight=4;overflow=hidden;rotatable=0;points=[[0,0.5],[1,0.5]];portConstraint=eastwest;fontSize=16;" vertex="1" parent="tACTMoxZzmI8DRIPEZdV-2">
          <mxGeometry y="110" width="200" height="32" as="geometry" />
        </mxCell>
        <mxCell id="tACTMoxZzmI8DRIPEZdV-8" style="edgeStyle=orthogonalEdgeStyle;rounded=0;orthogonalLoop=1;jettySize=auto;html=1;fontSize=16;" edge="1" parent="1" source="tACTMoxZzmI8DRIPEZdV-3" target="tACTMoxZzmI8DRIPEZdV-9">
          <mxGeometry relative="1" as="geometry">
            <mxPoint x="70" y="160" as="targetPoint" />
          </mxGeometry>
        </mxCell>
        <mxCell id="tACTMoxZzmI8DRIPEZdV-9" value="Point" style="text;html=1;strokeColor=none;fillColor=none;align=center;verticalAlign=middle;whiteSpace=wrap;rounded=0;fontSize=16;" vertex="1" parent="1">
          <mxGeometry x="50" y="150" width="40" height="20" as="geometry" />
        </mxCell>
        <mxCell id="tACTMoxZzmI8DRIPEZdV-13" style="edgeStyle=orthogonalEdgeStyle;rounded=0;orthogonalLoop=1;jettySize=auto;html=1;fontSize=16;" edge="1" parent="1" source="tACTMoxZzmI8DRIPEZdV-11" target="tACTMoxZzmI8DRIPEZdV-14">
          <mxGeometry relative="1" as="geometry">
            <mxPoint x="460" y="230" as="targetPoint" />
            <Array as="points">
              <mxPoint x="390" y="306" />
              <mxPoint x="390" y="140" />
            </Array>
          </mxGeometry>
        </mxCell>
        <mxCell id="tACTMoxZzmI8DRIPEZdV-19" style="edgeStyle=orthogonalEdgeStyle;rounded=0;orthogonalLoop=1;jettySize=auto;html=1;fontSize=16;entryX=0;entryY=0.5;entryDx=0;entryDy=0;" edge="1" parent="1" source="tACTMoxZzmI8DRIPEZdV-15" target="tACTMoxZzmI8DRIPEZdV-21">
          <mxGeometry relative="1" as="geometry">
            <mxPoint x="640" y="125" as="targetPoint" />
          </mxGeometry>
        </mxCell>
        <mxCell id="tACTMoxZzmI8DRIPEZdV-21" value="typeinfo" style="rounded=0;whiteSpace=wrap;html=1;fontSize=16;fillColor=#dae8fc;strokeColor=#6c8ebf;" vertex="1" parent="1">
          <mxGeometry x="630" y="110" width="120" height="40" as="geometry" />
        </mxCell>
        <mxCell id="tACTMoxZzmI8DRIPEZdV-22" style="edgeStyle=orthogonalEdgeStyle;rounded=0;orthogonalLoop=1;jettySize=auto;html=1;fontSize=16;entryX=0.5;entryY=0;entryDx=0;entryDy=0;" edge="1" parent="1" source="tACTMoxZzmI8DRIPEZdV-16" target="tACTMoxZzmI8DRIPEZdV-25">
          <mxGeometry relative="1" as="geometry">
            <mxPoint x="668.8000000000002" y="256.6500000000001" as="targetPoint" />
          </mxGeometry>
        </mxCell>
        <mxCell id="tACTMoxZzmI8DRIPEZdV-14" value="vtbl" style="swimlane;fontStyle=0;childLayout=stackLayout;horizontal=1;startSize=26;fillColor=#f5f5f5;horizontalStack=0;resizeParent=1;resizeParentMax=0;resizeLast=0;collapsible=1;marginBottom=0;fontSize=16;strokeColor=#666666;fontColor=#333333;" vertex="1" parent="1">
          <mxGeometry x="414" y="170" width="140" height="78" as="geometry" />
        </mxCell>
        <mxCell id="tACTMoxZzmI8DRIPEZdV-15" value="typeinfo addr" style="text;strokeColor=none;fillColor=none;align=left;verticalAlign=top;spacingLeft=4;spacingRight=4;overflow=hidden;rotatable=0;points=[[0,0.5],[1,0.5]];portConstraint=eastwest;fontSize=16;" vertex="1" parent="tACTMoxZzmI8DRIPEZdV-14">
          <mxGeometry y="26" width="140" height="26" as="geometry" />
        </mxCell>
        <mxCell id="tACTMoxZzmI8DRIPEZdV-16" value="virtual func1 addr" style="text;strokeColor=none;fillColor=none;align=left;verticalAlign=top;spacingLeft=4;spacingRight=4;overflow=hidden;rotatable=0;points=[[0,0.5],[1,0.5]];portConstraint=eastwest;fontSize=16;" vertex="1" parent="tACTMoxZzmI8DRIPEZdV-14">
          <mxGeometry y="52" width="140" height="26" as="geometry" />
        </mxCell>
        <mxCell id="tACTMoxZzmI8DRIPEZdV-25" value="getSqurtLength" style="rounded=0;whiteSpace=wrap;html=1;fontSize=16;fillColor=#dae8fc;strokeColor=#6c8ebf;" vertex="1" parent="1">
          <mxGeometry x="610" y="300" width="150" height="50" as="geometry" />
        </mxCell>
      </root>
    </mxGraphModel>
  </diagram>
</mxfile>
